<svg width="16" height="16" viewBox="0 0 16 16" fill="none" xmlns="http://www.w3.org/2000/svg">
<path d="M15.5 8C15.5 12.1421 12.1421 15.5 8 15.5C3.85786 15.5 0.5 12.1421 0.5 8C0.5 3.85786 3.85786 0.5 8 0.5C12.1421 0.5 15.5 3.85786 15.5 8Z" stroke="#9D5CD0"/>
<path d="M7.26154 6.4551H8.73846V13H7.26154V6.4551ZM8 4.90259C7.71282 4.90259 7.4718 4.81126 7.27692 4.62861C7.09231 4.44597 7 4.22273 7 3.9589C7 3.69508 7.09231 3.47184 7.27692 3.28919C7.4718 3.0964 7.71282 3 8 3C8.28718 3 8.52308 3.09132 8.70769 3.27397C8.90256 3.44647 9 3.66464 9 3.92846C9 4.20243 8.90256 4.43582 8.70769 4.62861C8.52308 4.81126 8.28718 4.90259 8 4.90259Z" fill="#9D5CD0"/>
</svg>
