<svg width="40" height="40" viewBox="0 0 40 40" fill="none" xmlns="http://www.w3.org/2000/svg">
<path d="M20 40C31.0457 40 40 31.0457 40 20C40 8.95431 31.0457 0 20 0C8.95431 0 0 8.95431 0 20C0 31.0457 8.95431 40 20 40Z" fill="url(#paint0_linear)"/>
<path fill-rule="evenodd" clip-rule="evenodd" d="M9.05311 19.7889L20.7167 14.7649C26.271 12.4547 27.425 12.0534 28.1773 12.0402C28.3428 12.0373 28.7127 12.0783 28.9523 12.2727C29.1547 12.4369 29.2103 12.6587 29.237 12.8143C29.2636 12.9699 29.2968 13.3246 29.2704 13.6017C28.9694 16.7641 27.667 24.4386 27.0045 27.9806C26.7241 29.4794 26.1725 29.9819 25.6377 30.0311C24.4762 30.138 23.5943 29.2635 22.4694 28.5261L18.006 25.528C16.0314 24.2268 17.3114 23.5116 18.4368 22.3428C18.7313 22.0368 23.8486 17.3823 23.9476 16.96C23.9596 16.9072 23.9715 16.7104 23.8546 16.6064C23.7376 16.5024 23.565 16.5384 23.4404 16.5663C23.2639 16.6064 20.4519 18.465 15.0044 22.1423C14.2062 22.6904 13.4832 22.9575 12.8354 22.9435C12.1213 22.9281 10.7477 22.5397 9.72651 22.2078C8.47399 21.8007 7.47851 21.5854 7.56523 20.8939C7.61035 20.5338 8.10631 20.1655 9.05307 19.789L9.05311 19.7889Z" fill="white"/>
<defs>
<linearGradient id="paint0_linear" x1="20" y1="0" x2="20" y2="39.7033" gradientUnits="userSpaceOnUse">
<stop stop-color="#2AABEE"/>
<stop offset="1" stop-color="#229ED9"/>
</linearGradient>
</defs>
</svg>
